<mxfile host="app.diagrams.net" modified="2022-09-26T06:24:01.303Z" agent="5.0 (Windows NT 10.0; Win64; x64) AppleWebKit/537.36 (KHTML, like Gecko) Chrome/105.0.0.0 Safari/537.36" etag="B5trfbkqS78MQaszNFJz" version="20.3.6" type="github">
  <diagram id="h81CbeIFjnb7u-Aa_v50" name="Page-1">
    <mxGraphModel dx="1871" dy="462" grid="1" gridSize="10" guides="1" tooltips="1" connect="1" arrows="1" fold="1" page="1" pageScale="1" pageWidth="850" pageHeight="1100" math="0" shadow="0">
      <root>
        <mxCell id="0" />
        <mxCell id="1" parent="0" />
        <mxCell id="yGLyyyXzOyP07_vXDALh-14" value="" style="shape=tableRow;horizontal=0;startSize=0;swimlaneHead=0;swimlaneBody=0;fillColor=none;collapsible=0;dropTarget=0;points=[[0,0.5],[1,0.5]];portConstraint=eastwest;top=0;left=0;right=0;bottom=0;" vertex="1" parent="1">
          <mxGeometry x="420" y="450" width="180" height="30" as="geometry" />
        </mxCell>
        <mxCell id="yGLyyyXzOyP07_vXDALh-15" value="" style="shape=partialRectangle;connectable=0;fillColor=none;top=0;left=0;bottom=0;right=0;editable=1;overflow=hidden;" vertex="1" parent="yGLyyyXzOyP07_vXDALh-14">
          <mxGeometry width="30" height="30" as="geometry">
            <mxRectangle width="30" height="30" as="alternateBounds" />
          </mxGeometry>
        </mxCell>
        <mxCell id="yGLyyyXzOyP07_vXDALh-16" value="Pegawai_Perpus" style="shape=table;startSize=30;container=1;collapsible=1;childLayout=tableLayout;fixedRows=1;rowLines=0;fontStyle=1;align=center;resizeLast=1;" vertex="1" parent="1">
          <mxGeometry x="80" y="480" width="180" height="150" as="geometry" />
        </mxCell>
        <mxCell id="yGLyyyXzOyP07_vXDALh-17" value="" style="shape=tableRow;horizontal=0;startSize=0;swimlaneHead=0;swimlaneBody=0;fillColor=none;collapsible=0;dropTarget=0;points=[[0,0.5],[1,0.5]];portConstraint=eastwest;top=0;left=0;right=0;bottom=1;" vertex="1" parent="yGLyyyXzOyP07_vXDALh-16">
          <mxGeometry y="30" width="180" height="30" as="geometry" />
        </mxCell>
        <mxCell id="yGLyyyXzOyP07_vXDALh-18" value="PK" style="shape=partialRectangle;connectable=0;fillColor=none;top=0;left=0;bottom=0;right=0;fontStyle=1;overflow=hidden;" vertex="1" parent="yGLyyyXzOyP07_vXDALh-17">
          <mxGeometry width="30" height="30" as="geometry">
            <mxRectangle width="30" height="30" as="alternateBounds" />
          </mxGeometry>
        </mxCell>
        <mxCell id="yGLyyyXzOyP07_vXDALh-19" value="ID_Pegawai" style="shape=partialRectangle;connectable=0;fillColor=none;top=0;left=0;bottom=0;right=0;align=left;spacingLeft=6;fontStyle=1;overflow=hidden;" vertex="1" parent="yGLyyyXzOyP07_vXDALh-17">
          <mxGeometry x="30" width="150" height="30" as="geometry">
            <mxRectangle width="150" height="30" as="alternateBounds" />
          </mxGeometry>
        </mxCell>
        <mxCell id="yGLyyyXzOyP07_vXDALh-20" value="" style="shape=tableRow;horizontal=0;startSize=0;swimlaneHead=0;swimlaneBody=0;fillColor=none;collapsible=0;dropTarget=0;points=[[0,0.5],[1,0.5]];portConstraint=eastwest;top=0;left=0;right=0;bottom=0;" vertex="1" parent="yGLyyyXzOyP07_vXDALh-16">
          <mxGeometry y="60" width="180" height="30" as="geometry" />
        </mxCell>
        <mxCell id="yGLyyyXzOyP07_vXDALh-21" value="" style="shape=partialRectangle;connectable=0;fillColor=none;top=0;left=0;bottom=0;right=0;editable=1;overflow=hidden;" vertex="1" parent="yGLyyyXzOyP07_vXDALh-20">
          <mxGeometry width="30" height="30" as="geometry">
            <mxRectangle width="30" height="30" as="alternateBounds" />
          </mxGeometry>
        </mxCell>
        <mxCell id="yGLyyyXzOyP07_vXDALh-22" value="Nama_Pegawai" style="shape=partialRectangle;connectable=0;fillColor=none;top=0;left=0;bottom=0;right=0;align=left;spacingLeft=6;overflow=hidden;" vertex="1" parent="yGLyyyXzOyP07_vXDALh-20">
          <mxGeometry x="30" width="150" height="30" as="geometry">
            <mxRectangle width="150" height="30" as="alternateBounds" />
          </mxGeometry>
        </mxCell>
        <mxCell id="yGLyyyXzOyP07_vXDALh-23" value="" style="shape=tableRow;horizontal=0;startSize=0;swimlaneHead=0;swimlaneBody=0;fillColor=none;collapsible=0;dropTarget=0;points=[[0,0.5],[1,0.5]];portConstraint=eastwest;top=0;left=0;right=0;bottom=0;" vertex="1" parent="yGLyyyXzOyP07_vXDALh-16">
          <mxGeometry y="90" width="180" height="30" as="geometry" />
        </mxCell>
        <mxCell id="yGLyyyXzOyP07_vXDALh-24" value="" style="shape=partialRectangle;connectable=0;fillColor=none;top=0;left=0;bottom=0;right=0;editable=1;overflow=hidden;" vertex="1" parent="yGLyyyXzOyP07_vXDALh-23">
          <mxGeometry width="30" height="30" as="geometry">
            <mxRectangle width="30" height="30" as="alternateBounds" />
          </mxGeometry>
        </mxCell>
        <mxCell id="yGLyyyXzOyP07_vXDALh-25" value="Gender_Pegawai" style="shape=partialRectangle;connectable=0;fillColor=none;top=0;left=0;bottom=0;right=0;align=left;spacingLeft=6;overflow=hidden;" vertex="1" parent="yGLyyyXzOyP07_vXDALh-23">
          <mxGeometry x="30" width="150" height="30" as="geometry">
            <mxRectangle width="150" height="30" as="alternateBounds" />
          </mxGeometry>
        </mxCell>
        <mxCell id="yGLyyyXzOyP07_vXDALh-26" value="" style="shape=tableRow;horizontal=0;startSize=0;swimlaneHead=0;swimlaneBody=0;fillColor=none;collapsible=0;dropTarget=0;points=[[0,0.5],[1,0.5]];portConstraint=eastwest;top=0;left=0;right=0;bottom=0;" vertex="1" parent="yGLyyyXzOyP07_vXDALh-16">
          <mxGeometry y="120" width="180" height="30" as="geometry" />
        </mxCell>
        <mxCell id="yGLyyyXzOyP07_vXDALh-27" value="" style="shape=partialRectangle;connectable=0;fillColor=none;top=0;left=0;bottom=0;right=0;editable=1;overflow=hidden;" vertex="1" parent="yGLyyyXzOyP07_vXDALh-26">
          <mxGeometry width="30" height="30" as="geometry">
            <mxRectangle width="30" height="30" as="alternateBounds" />
          </mxGeometry>
        </mxCell>
        <mxCell id="yGLyyyXzOyP07_vXDALh-28" value="Alamat" style="shape=partialRectangle;connectable=0;fillColor=none;top=0;left=0;bottom=0;right=0;align=left;spacingLeft=6;overflow=hidden;" vertex="1" parent="yGLyyyXzOyP07_vXDALh-26">
          <mxGeometry x="30" width="150" height="30" as="geometry">
            <mxRectangle width="150" height="30" as="alternateBounds" />
          </mxGeometry>
        </mxCell>
        <mxCell id="yGLyyyXzOyP07_vXDALh-29" value="Pinjam" style="shape=table;startSize=30;container=1;collapsible=1;childLayout=tableLayout;fixedRows=1;rowLines=0;fontStyle=1;align=center;resizeLast=1;" vertex="1" parent="1">
          <mxGeometry x="480" y="290" width="180" height="200" as="geometry" />
        </mxCell>
        <mxCell id="yGLyyyXzOyP07_vXDALh-30" value="" style="shape=tableRow;horizontal=0;startSize=0;swimlaneHead=0;swimlaneBody=0;fillColor=none;collapsible=0;dropTarget=0;points=[[0,0.5],[1,0.5]];portConstraint=eastwest;top=0;left=0;right=0;bottom=1;" vertex="1" parent="yGLyyyXzOyP07_vXDALh-29">
          <mxGeometry y="30" width="180" height="30" as="geometry" />
        </mxCell>
        <mxCell id="yGLyyyXzOyP07_vXDALh-31" value="PK" style="shape=partialRectangle;connectable=0;fillColor=none;top=0;left=0;bottom=0;right=0;fontStyle=1;overflow=hidden;" vertex="1" parent="yGLyyyXzOyP07_vXDALh-30">
          <mxGeometry width="30" height="30" as="geometry">
            <mxRectangle width="30" height="30" as="alternateBounds" />
          </mxGeometry>
        </mxCell>
        <mxCell id="yGLyyyXzOyP07_vXDALh-32" value="ID_Pinjam" style="shape=partialRectangle;connectable=0;fillColor=none;top=0;left=0;bottom=0;right=0;align=left;spacingLeft=6;fontStyle=1;overflow=hidden;" vertex="1" parent="yGLyyyXzOyP07_vXDALh-30">
          <mxGeometry x="30" width="150" height="30" as="geometry">
            <mxRectangle width="150" height="30" as="alternateBounds" />
          </mxGeometry>
        </mxCell>
        <mxCell id="yGLyyyXzOyP07_vXDALh-33" value="" style="shape=tableRow;horizontal=0;startSize=0;swimlaneHead=0;swimlaneBody=0;fillColor=none;collapsible=0;dropTarget=0;points=[[0,0.5],[1,0.5]];portConstraint=eastwest;top=0;left=0;right=0;bottom=0;" vertex="1" parent="yGLyyyXzOyP07_vXDALh-29">
          <mxGeometry y="60" width="180" height="30" as="geometry" />
        </mxCell>
        <mxCell id="yGLyyyXzOyP07_vXDALh-34" value="" style="shape=partialRectangle;connectable=0;fillColor=none;top=0;left=0;bottom=0;right=0;editable=1;overflow=hidden;" vertex="1" parent="yGLyyyXzOyP07_vXDALh-33">
          <mxGeometry width="30" height="30" as="geometry">
            <mxRectangle width="30" height="30" as="alternateBounds" />
          </mxGeometry>
        </mxCell>
        <mxCell id="yGLyyyXzOyP07_vXDALh-35" value="ID_Buku" style="shape=partialRectangle;connectable=0;fillColor=none;top=0;left=0;bottom=0;right=0;align=left;spacingLeft=6;overflow=hidden;fontStyle=1" vertex="1" parent="yGLyyyXzOyP07_vXDALh-33">
          <mxGeometry x="30" width="150" height="30" as="geometry">
            <mxRectangle width="150" height="30" as="alternateBounds" />
          </mxGeometry>
        </mxCell>
        <mxCell id="yGLyyyXzOyP07_vXDALh-36" value="" style="shape=tableRow;horizontal=0;startSize=0;swimlaneHead=0;swimlaneBody=0;fillColor=none;collapsible=0;dropTarget=0;points=[[0,0.5],[1,0.5]];portConstraint=eastwest;top=0;left=0;right=0;bottom=0;" vertex="1" parent="yGLyyyXzOyP07_vXDALh-29">
          <mxGeometry y="90" width="180" height="30" as="geometry" />
        </mxCell>
        <mxCell id="yGLyyyXzOyP07_vXDALh-37" value="" style="shape=partialRectangle;connectable=0;fillColor=none;top=0;left=0;bottom=0;right=0;editable=1;overflow=hidden;" vertex="1" parent="yGLyyyXzOyP07_vXDALh-36">
          <mxGeometry width="30" height="30" as="geometry">
            <mxRectangle width="30" height="30" as="alternateBounds" />
          </mxGeometry>
        </mxCell>
        <mxCell id="yGLyyyXzOyP07_vXDALh-38" value="NPM" style="shape=partialRectangle;connectable=0;fillColor=none;top=0;left=0;bottom=0;right=0;align=left;spacingLeft=6;overflow=hidden;fontStyle=1" vertex="1" parent="yGLyyyXzOyP07_vXDALh-36">
          <mxGeometry x="30" width="150" height="30" as="geometry">
            <mxRectangle width="150" height="30" as="alternateBounds" />
          </mxGeometry>
        </mxCell>
        <mxCell id="yGLyyyXzOyP07_vXDALh-39" value="" style="shape=tableRow;horizontal=0;startSize=0;swimlaneHead=0;swimlaneBody=0;fillColor=none;collapsible=0;dropTarget=0;points=[[0,0.5],[1,0.5]];portConstraint=eastwest;top=0;left=0;right=0;bottom=0;" vertex="1" parent="yGLyyyXzOyP07_vXDALh-29">
          <mxGeometry y="120" width="180" height="30" as="geometry" />
        </mxCell>
        <mxCell id="yGLyyyXzOyP07_vXDALh-40" value="" style="shape=partialRectangle;connectable=0;fillColor=none;top=0;left=0;bottom=0;right=0;editable=1;overflow=hidden;" vertex="1" parent="yGLyyyXzOyP07_vXDALh-39">
          <mxGeometry width="30" height="30" as="geometry">
            <mxRectangle width="30" height="30" as="alternateBounds" />
          </mxGeometry>
        </mxCell>
        <mxCell id="yGLyyyXzOyP07_vXDALh-41" value="ID_Pegawai" style="shape=partialRectangle;connectable=0;fillColor=none;top=0;left=0;bottom=0;right=0;align=left;spacingLeft=6;overflow=hidden;fontStyle=1" vertex="1" parent="yGLyyyXzOyP07_vXDALh-39">
          <mxGeometry x="30" width="150" height="30" as="geometry">
            <mxRectangle width="150" height="30" as="alternateBounds" />
          </mxGeometry>
        </mxCell>
        <mxCell id="yGLyyyXzOyP07_vXDALh-42" value="FK" style="shape=partialRectangle;connectable=0;fillColor=none;top=0;left=0;bottom=0;right=0;fontStyle=1;overflow=hidden;" vertex="1" parent="1">
          <mxGeometry x="480" y="350" width="30" height="30" as="geometry">
            <mxRectangle width="30" height="30" as="alternateBounds" />
          </mxGeometry>
        </mxCell>
        <mxCell id="yGLyyyXzOyP07_vXDALh-43" value="Tanggal_Peminjaman" style="shape=partialRectangle;connectable=0;fillColor=none;top=0;left=0;bottom=0;right=0;align=left;spacingLeft=6;overflow=hidden;" vertex="1" parent="1">
          <mxGeometry x="510" y="435" width="150" height="30" as="geometry">
            <mxRectangle width="150" height="30" as="alternateBounds" />
          </mxGeometry>
        </mxCell>
        <mxCell id="yGLyyyXzOyP07_vXDALh-44" value="Tanggal_Pengembalian" style="shape=partialRectangle;connectable=0;fillColor=none;top=0;left=0;bottom=0;right=0;align=left;spacingLeft=6;overflow=hidden;" vertex="1" parent="1">
          <mxGeometry x="510" y="460" width="150" height="30" as="geometry">
            <mxRectangle width="150" height="30" as="alternateBounds" />
          </mxGeometry>
        </mxCell>
        <mxCell id="yGLyyyXzOyP07_vXDALh-45" value="" style="endArrow=none;html=1;rounded=0;" edge="1" parent="1">
          <mxGeometry relative="1" as="geometry">
            <mxPoint x="510" y="350" as="sourcePoint" />
            <mxPoint x="510" y="490" as="targetPoint" />
          </mxGeometry>
        </mxCell>
        <mxCell id="yGLyyyXzOyP07_vXDALh-46" style="edgeStyle=orthogonalEdgeStyle;rounded=0;orthogonalLoop=1;jettySize=auto;html=1;exitX=1;exitY=0.5;exitDx=0;exitDy=0;" edge="1" parent="1">
          <mxGeometry relative="1" as="geometry">
            <mxPoint x="480" y="360" as="targetPoint" />
            <mxPoint x="260" y="155" as="sourcePoint" />
            <Array as="points">
              <mxPoint x="330" y="155" />
              <mxPoint x="330" y="360" />
            </Array>
          </mxGeometry>
        </mxCell>
        <mxCell id="yGLyyyXzOyP07_vXDALh-47" value="FK" style="shape=partialRectangle;connectable=0;fillColor=none;top=0;left=0;bottom=0;right=0;fontStyle=1;overflow=hidden;" vertex="1" parent="1">
          <mxGeometry x="480" y="375" width="30" height="30" as="geometry">
            <mxRectangle width="30" height="30" as="alternateBounds" />
          </mxGeometry>
        </mxCell>
        <mxCell id="yGLyyyXzOyP07_vXDALh-48" value="FK" style="shape=partialRectangle;connectable=0;fillColor=none;top=0;left=0;bottom=0;right=0;fontStyle=1;overflow=hidden;" vertex="1" parent="1">
          <mxGeometry x="480" y="405" width="30" height="30" as="geometry">
            <mxRectangle width="30" height="30" as="alternateBounds" />
          </mxGeometry>
        </mxCell>
        <mxCell id="yGLyyyXzOyP07_vXDALh-50" style="edgeStyle=orthogonalEdgeStyle;rounded=0;orthogonalLoop=1;jettySize=auto;html=1;" edge="1" parent="1" source="yGLyyyXzOyP07_vXDALh-17">
          <mxGeometry relative="1" as="geometry">
            <mxPoint x="480" y="420" as="targetPoint" />
            <Array as="points">
              <mxPoint x="330" y="525" />
              <mxPoint x="330" y="420" />
            </Array>
          </mxGeometry>
        </mxCell>
        <mxCell id="yGLyyyXzOyP07_vXDALh-51" value="Mahasiswa" style="shape=table;startSize=30;container=1;collapsible=1;childLayout=tableLayout;fixedRows=1;rowLines=0;fontStyle=1;align=center;resizeLast=1;" vertex="1" parent="1">
          <mxGeometry x="80" y="110" width="180" height="150" as="geometry" />
        </mxCell>
        <mxCell id="yGLyyyXzOyP07_vXDALh-52" value="" style="shape=tableRow;horizontal=0;startSize=0;swimlaneHead=0;swimlaneBody=0;fillColor=none;collapsible=0;dropTarget=0;points=[[0,0.5],[1,0.5]];portConstraint=eastwest;top=0;left=0;right=0;bottom=1;" vertex="1" parent="yGLyyyXzOyP07_vXDALh-51">
          <mxGeometry y="30" width="180" height="30" as="geometry" />
        </mxCell>
        <mxCell id="yGLyyyXzOyP07_vXDALh-53" value="PK" style="shape=partialRectangle;connectable=0;fillColor=none;top=0;left=0;bottom=0;right=0;fontStyle=1;overflow=hidden;" vertex="1" parent="yGLyyyXzOyP07_vXDALh-52">
          <mxGeometry width="30" height="30" as="geometry">
            <mxRectangle width="30" height="30" as="alternateBounds" />
          </mxGeometry>
        </mxCell>
        <mxCell id="yGLyyyXzOyP07_vXDALh-54" value="NPM" style="shape=partialRectangle;connectable=0;fillColor=none;top=0;left=0;bottom=0;right=0;align=left;spacingLeft=6;fontStyle=1;overflow=hidden;" vertex="1" parent="yGLyyyXzOyP07_vXDALh-52">
          <mxGeometry x="30" width="150" height="30" as="geometry">
            <mxRectangle width="150" height="30" as="alternateBounds" />
          </mxGeometry>
        </mxCell>
        <mxCell id="yGLyyyXzOyP07_vXDALh-55" value="" style="shape=tableRow;horizontal=0;startSize=0;swimlaneHead=0;swimlaneBody=0;fillColor=none;collapsible=0;dropTarget=0;points=[[0,0.5],[1,0.5]];portConstraint=eastwest;top=0;left=0;right=0;bottom=0;" vertex="1" parent="yGLyyyXzOyP07_vXDALh-51">
          <mxGeometry y="60" width="180" height="30" as="geometry" />
        </mxCell>
        <mxCell id="yGLyyyXzOyP07_vXDALh-56" value="" style="shape=partialRectangle;connectable=0;fillColor=none;top=0;left=0;bottom=0;right=0;editable=1;overflow=hidden;" vertex="1" parent="yGLyyyXzOyP07_vXDALh-55">
          <mxGeometry width="30" height="30" as="geometry">
            <mxRectangle width="30" height="30" as="alternateBounds" />
          </mxGeometry>
        </mxCell>
        <mxCell id="yGLyyyXzOyP07_vXDALh-57" value="Nama_Mahasiswa" style="shape=partialRectangle;connectable=0;fillColor=none;top=0;left=0;bottom=0;right=0;align=left;spacingLeft=6;overflow=hidden;" vertex="1" parent="yGLyyyXzOyP07_vXDALh-55">
          <mxGeometry x="30" width="150" height="30" as="geometry">
            <mxRectangle width="150" height="30" as="alternateBounds" />
          </mxGeometry>
        </mxCell>
        <mxCell id="yGLyyyXzOyP07_vXDALh-58" value="" style="shape=tableRow;horizontal=0;startSize=0;swimlaneHead=0;swimlaneBody=0;fillColor=none;collapsible=0;dropTarget=0;points=[[0,0.5],[1,0.5]];portConstraint=eastwest;top=0;left=0;right=0;bottom=0;" vertex="1" parent="yGLyyyXzOyP07_vXDALh-51">
          <mxGeometry y="90" width="180" height="30" as="geometry" />
        </mxCell>
        <mxCell id="yGLyyyXzOyP07_vXDALh-59" value="" style="shape=partialRectangle;connectable=0;fillColor=none;top=0;left=0;bottom=0;right=0;editable=1;overflow=hidden;" vertex="1" parent="yGLyyyXzOyP07_vXDALh-58">
          <mxGeometry width="30" height="30" as="geometry">
            <mxRectangle width="30" height="30" as="alternateBounds" />
          </mxGeometry>
        </mxCell>
        <mxCell id="yGLyyyXzOyP07_vXDALh-60" value="Jenis_Kelamin" style="shape=partialRectangle;connectable=0;fillColor=none;top=0;left=0;bottom=0;right=0;align=left;spacingLeft=6;overflow=hidden;" vertex="1" parent="yGLyyyXzOyP07_vXDALh-58">
          <mxGeometry x="30" width="150" height="30" as="geometry">
            <mxRectangle width="150" height="30" as="alternateBounds" />
          </mxGeometry>
        </mxCell>
        <mxCell id="yGLyyyXzOyP07_vXDALh-61" value="" style="shape=tableRow;horizontal=0;startSize=0;swimlaneHead=0;swimlaneBody=0;fillColor=none;collapsible=0;dropTarget=0;points=[[0,0.5],[1,0.5]];portConstraint=eastwest;top=0;left=0;right=0;bottom=0;" vertex="1" parent="yGLyyyXzOyP07_vXDALh-51">
          <mxGeometry y="120" width="180" height="30" as="geometry" />
        </mxCell>
        <mxCell id="yGLyyyXzOyP07_vXDALh-62" value="" style="shape=partialRectangle;connectable=0;fillColor=none;top=0;left=0;bottom=0;right=0;editable=1;overflow=hidden;" vertex="1" parent="yGLyyyXzOyP07_vXDALh-61">
          <mxGeometry width="30" height="30" as="geometry">
            <mxRectangle width="30" height="30" as="alternateBounds" />
          </mxGeometry>
        </mxCell>
        <mxCell id="yGLyyyXzOyP07_vXDALh-63" value="Prodi" style="shape=partialRectangle;connectable=0;fillColor=none;top=0;left=0;bottom=0;right=0;align=left;spacingLeft=6;overflow=hidden;" vertex="1" parent="yGLyyyXzOyP07_vXDALh-61">
          <mxGeometry x="30" width="150" height="30" as="geometry">
            <mxRectangle width="150" height="30" as="alternateBounds" />
          </mxGeometry>
        </mxCell>
        <mxCell id="yGLyyyXzOyP07_vXDALh-77" value="Pinjam" style="shape=table;startSize=30;container=1;collapsible=1;childLayout=tableLayout;fixedRows=1;rowLines=0;fontStyle=1;align=center;resizeLast=1;" vertex="1" parent="1">
          <mxGeometry x="800" y="290" width="180" height="150" as="geometry" />
        </mxCell>
        <mxCell id="yGLyyyXzOyP07_vXDALh-78" value="" style="shape=tableRow;horizontal=0;startSize=0;swimlaneHead=0;swimlaneBody=0;fillColor=none;collapsible=0;dropTarget=0;points=[[0,0.5],[1,0.5]];portConstraint=eastwest;top=0;left=0;right=0;bottom=1;" vertex="1" parent="yGLyyyXzOyP07_vXDALh-77">
          <mxGeometry y="30" width="180" height="30" as="geometry" />
        </mxCell>
        <mxCell id="yGLyyyXzOyP07_vXDALh-79" value="PK" style="shape=partialRectangle;connectable=0;fillColor=none;top=0;left=0;bottom=0;right=0;fontStyle=1;overflow=hidden;" vertex="1" parent="yGLyyyXzOyP07_vXDALh-78">
          <mxGeometry width="30" height="30" as="geometry">
            <mxRectangle width="30" height="30" as="alternateBounds" />
          </mxGeometry>
        </mxCell>
        <mxCell id="yGLyyyXzOyP07_vXDALh-80" value="ID_Buku" style="shape=partialRectangle;connectable=0;fillColor=none;top=0;left=0;bottom=0;right=0;align=left;spacingLeft=6;fontStyle=1;overflow=hidden;" vertex="1" parent="yGLyyyXzOyP07_vXDALh-78">
          <mxGeometry x="30" width="150" height="30" as="geometry">
            <mxRectangle width="150" height="30" as="alternateBounds" />
          </mxGeometry>
        </mxCell>
        <mxCell id="yGLyyyXzOyP07_vXDALh-81" value="" style="shape=tableRow;horizontal=0;startSize=0;swimlaneHead=0;swimlaneBody=0;fillColor=none;collapsible=0;dropTarget=0;points=[[0,0.5],[1,0.5]];portConstraint=eastwest;top=0;left=0;right=0;bottom=0;" vertex="1" parent="yGLyyyXzOyP07_vXDALh-77">
          <mxGeometry y="60" width="180" height="30" as="geometry" />
        </mxCell>
        <mxCell id="yGLyyyXzOyP07_vXDALh-82" value="" style="shape=partialRectangle;connectable=0;fillColor=none;top=0;left=0;bottom=0;right=0;editable=1;overflow=hidden;" vertex="1" parent="yGLyyyXzOyP07_vXDALh-81">
          <mxGeometry width="30" height="30" as="geometry">
            <mxRectangle width="30" height="30" as="alternateBounds" />
          </mxGeometry>
        </mxCell>
        <mxCell id="yGLyyyXzOyP07_vXDALh-83" value="Judul_Buku" style="shape=partialRectangle;connectable=0;fillColor=none;top=0;left=0;bottom=0;right=0;align=left;spacingLeft=6;overflow=hidden;fontStyle=1" vertex="1" parent="yGLyyyXzOyP07_vXDALh-81">
          <mxGeometry x="30" width="150" height="30" as="geometry">
            <mxRectangle width="150" height="30" as="alternateBounds" />
          </mxGeometry>
        </mxCell>
        <mxCell id="yGLyyyXzOyP07_vXDALh-84" value="" style="shape=tableRow;horizontal=0;startSize=0;swimlaneHead=0;swimlaneBody=0;fillColor=none;collapsible=0;dropTarget=0;points=[[0,0.5],[1,0.5]];portConstraint=eastwest;top=0;left=0;right=0;bottom=0;" vertex="1" parent="yGLyyyXzOyP07_vXDALh-77">
          <mxGeometry y="90" width="180" height="30" as="geometry" />
        </mxCell>
        <mxCell id="yGLyyyXzOyP07_vXDALh-85" value="" style="shape=partialRectangle;connectable=0;fillColor=none;top=0;left=0;bottom=0;right=0;editable=1;overflow=hidden;" vertex="1" parent="yGLyyyXzOyP07_vXDALh-84">
          <mxGeometry width="30" height="30" as="geometry">
            <mxRectangle width="30" height="30" as="alternateBounds" />
          </mxGeometry>
        </mxCell>
        <mxCell id="yGLyyyXzOyP07_vXDALh-86" value="Nama_Penulis" style="shape=partialRectangle;connectable=0;fillColor=none;top=0;left=0;bottom=0;right=0;align=left;spacingLeft=6;overflow=hidden;" vertex="1" parent="yGLyyyXzOyP07_vXDALh-84">
          <mxGeometry x="30" width="150" height="30" as="geometry">
            <mxRectangle width="150" height="30" as="alternateBounds" />
          </mxGeometry>
        </mxCell>
        <mxCell id="yGLyyyXzOyP07_vXDALh-87" value="" style="shape=tableRow;horizontal=0;startSize=0;swimlaneHead=0;swimlaneBody=0;fillColor=none;collapsible=0;dropTarget=0;points=[[0,0.5],[1,0.5]];portConstraint=eastwest;top=0;left=0;right=0;bottom=0;" vertex="1" parent="yGLyyyXzOyP07_vXDALh-77">
          <mxGeometry y="120" width="180" height="30" as="geometry" />
        </mxCell>
        <mxCell id="yGLyyyXzOyP07_vXDALh-88" value="" style="shape=partialRectangle;connectable=0;fillColor=none;top=0;left=0;bottom=0;right=0;editable=1;overflow=hidden;" vertex="1" parent="yGLyyyXzOyP07_vXDALh-87">
          <mxGeometry width="30" height="30" as="geometry">
            <mxRectangle width="30" height="30" as="alternateBounds" />
          </mxGeometry>
        </mxCell>
        <mxCell id="yGLyyyXzOyP07_vXDALh-89" value="Penerbit" style="shape=partialRectangle;connectable=0;fillColor=none;top=0;left=0;bottom=0;right=0;align=left;spacingLeft=6;overflow=hidden;" vertex="1" parent="yGLyyyXzOyP07_vXDALh-87">
          <mxGeometry x="30" width="150" height="30" as="geometry">
            <mxRectangle width="150" height="30" as="alternateBounds" />
          </mxGeometry>
        </mxCell>
        <mxCell id="yGLyyyXzOyP07_vXDALh-90" style="edgeStyle=orthogonalEdgeStyle;rounded=0;orthogonalLoop=1;jettySize=auto;html=1;exitX=0;exitY=0.5;exitDx=0;exitDy=0;entryX=1;entryY=0.5;entryDx=0;entryDy=0;" edge="1" parent="1" source="yGLyyyXzOyP07_vXDALh-81" target="yGLyyyXzOyP07_vXDALh-33">
          <mxGeometry relative="1" as="geometry" />
        </mxCell>
        <mxCell id="yGLyyyXzOyP07_vXDALh-91" style="edgeStyle=orthogonalEdgeStyle;curved=1;rounded=0;orthogonalLoop=1;jettySize=auto;html=1;entryX=0;entryY=0.5;entryDx=0;entryDy=0;" edge="1" parent="1" source="yGLyyyXzOyP07_vXDALh-92" target="yGLyyyXzOyP07_vXDALh-96">
          <mxGeometry relative="1" as="geometry" />
        </mxCell>
        <mxCell id="yGLyyyXzOyP07_vXDALh-92" value="Pegawai" style="whiteSpace=wrap;html=1;align=center;" vertex="1" parent="1">
          <mxGeometry x="445" y="800" width="100" height="40" as="geometry" />
        </mxCell>
        <mxCell id="yGLyyyXzOyP07_vXDALh-93" style="edgeStyle=orthogonalEdgeStyle;curved=1;rounded=0;orthogonalLoop=1;jettySize=auto;html=1;entryX=0.5;entryY=0;entryDx=0;entryDy=0;" edge="1" parent="1" source="yGLyyyXzOyP07_vXDALh-94" target="yGLyyyXzOyP07_vXDALh-100">
          <mxGeometry relative="1" as="geometry" />
        </mxCell>
        <mxCell id="yGLyyyXzOyP07_vXDALh-94" value="Pinjam" style="whiteSpace=wrap;html=1;align=center;" vertex="1" parent="1">
          <mxGeometry x="710" y="930" width="100" height="40" as="geometry" />
        </mxCell>
        <mxCell id="yGLyyyXzOyP07_vXDALh-95" style="edgeStyle=orthogonalEdgeStyle;curved=1;rounded=0;orthogonalLoop=1;jettySize=auto;html=1;exitX=0.5;exitY=1;exitDx=0;exitDy=0;entryX=0.5;entryY=0;entryDx=0;entryDy=0;" edge="1" parent="1" source="yGLyyyXzOyP07_vXDALh-96" target="yGLyyyXzOyP07_vXDALh-94">
          <mxGeometry relative="1" as="geometry" />
        </mxCell>
        <mxCell id="yGLyyyXzOyP07_vXDALh-96" value="Menyerahkan" style="shape=rhombus;perimeter=rhombusPerimeter;whiteSpace=wrap;html=1;align=center;" vertex="1" parent="1">
          <mxGeometry x="700" y="790" width="120" height="60" as="geometry" />
        </mxCell>
        <mxCell id="yGLyyyXzOyP07_vXDALh-97" style="edgeStyle=orthogonalEdgeStyle;curved=1;rounded=0;orthogonalLoop=1;jettySize=auto;html=1;entryX=1;entryY=0.5;entryDx=0;entryDy=0;" edge="1" parent="1" source="yGLyyyXzOyP07_vXDALh-98" target="yGLyyyXzOyP07_vXDALh-102">
          <mxGeometry relative="1" as="geometry">
            <mxPoint x="340" y="1120" as="targetPoint" />
          </mxGeometry>
        </mxCell>
        <mxCell id="yGLyyyXzOyP07_vXDALh-98" value="Buku" style="whiteSpace=wrap;html=1;align=center;" vertex="1" parent="1">
          <mxGeometry x="480" y="1100" width="100" height="40" as="geometry" />
        </mxCell>
        <mxCell id="yGLyyyXzOyP07_vXDALh-99" style="edgeStyle=orthogonalEdgeStyle;curved=1;rounded=0;orthogonalLoop=1;jettySize=auto;html=1;" edge="1" parent="1" source="yGLyyyXzOyP07_vXDALh-100" target="yGLyyyXzOyP07_vXDALh-98">
          <mxGeometry relative="1" as="geometry" />
        </mxCell>
        <mxCell id="yGLyyyXzOyP07_vXDALh-100" value="Mencatat" style="shape=rhombus;perimeter=rhombusPerimeter;whiteSpace=wrap;html=1;align=center;" vertex="1" parent="1">
          <mxGeometry x="710" y="1090" width="120" height="60" as="geometry" />
        </mxCell>
        <mxCell id="yGLyyyXzOyP07_vXDALh-101" style="edgeStyle=orthogonalEdgeStyle;curved=1;rounded=0;orthogonalLoop=1;jettySize=auto;html=1;entryX=0.5;entryY=1;entryDx=0;entryDy=0;" edge="1" parent="1" source="yGLyyyXzOyP07_vXDALh-102" target="yGLyyyXzOyP07_vXDALh-103">
          <mxGeometry relative="1" as="geometry" />
        </mxCell>
        <mxCell id="yGLyyyXzOyP07_vXDALh-102" value="Meminjam" style="shape=rhombus;perimeter=rhombusPerimeter;whiteSpace=wrap;html=1;align=center;" vertex="1" parent="1">
          <mxGeometry x="160" y="1090" width="120" height="60" as="geometry" />
        </mxCell>
        <mxCell id="yGLyyyXzOyP07_vXDALh-103" value="Mahasiswa" style="whiteSpace=wrap;html=1;align=center;" vertex="1" parent="1">
          <mxGeometry x="170" y="970" width="100" height="40" as="geometry" />
        </mxCell>
        <mxCell id="yGLyyyXzOyP07_vXDALh-104" style="edgeStyle=orthogonalEdgeStyle;rounded=0;orthogonalLoop=1;jettySize=auto;html=1;curved=1;entryX=0.468;entryY=-0.032;entryDx=0;entryDy=0;entryPerimeter=0;" edge="1" parent="1" source="yGLyyyXzOyP07_vXDALh-105" target="yGLyyyXzOyP07_vXDALh-92">
          <mxGeometry relative="1" as="geometry">
            <mxPoint x="440" y="810" as="targetPoint" />
          </mxGeometry>
        </mxCell>
        <mxCell id="yGLyyyXzOyP07_vXDALh-105" value="ID_Pegawai" style="ellipse;whiteSpace=wrap;html=1;align=center;" vertex="1" parent="1">
          <mxGeometry x="280" y="760" width="100" height="40" as="geometry" />
        </mxCell>
        <mxCell id="yGLyyyXzOyP07_vXDALh-106" style="edgeStyle=orthogonalEdgeStyle;curved=1;rounded=0;orthogonalLoop=1;jettySize=auto;html=1;entryX=0.5;entryY=0;entryDx=0;entryDy=0;" edge="1" parent="1" source="yGLyyyXzOyP07_vXDALh-107" target="yGLyyyXzOyP07_vXDALh-92">
          <mxGeometry relative="1" as="geometry">
            <Array as="points">
              <mxPoint x="425" y="760" />
              <mxPoint x="490" y="760" />
              <mxPoint x="490" y="800" />
            </Array>
          </mxGeometry>
        </mxCell>
        <mxCell id="yGLyyyXzOyP07_vXDALh-107" value="&lt;span style=&quot;border-bottom: 1px dotted&quot;&gt;Nama_Pegawai&lt;/span&gt;" style="ellipse;whiteSpace=wrap;html=1;align=center;" vertex="1" parent="1">
          <mxGeometry x="375" y="710" width="100" height="40" as="geometry" />
        </mxCell>
        <mxCell id="yGLyyyXzOyP07_vXDALh-108" style="edgeStyle=orthogonalEdgeStyle;curved=1;rounded=0;orthogonalLoop=1;jettySize=auto;html=1;" edge="1" parent="1" source="yGLyyyXzOyP07_vXDALh-109">
          <mxGeometry relative="1" as="geometry">
            <mxPoint x="490" y="800" as="targetPoint" />
          </mxGeometry>
        </mxCell>
        <mxCell id="yGLyyyXzOyP07_vXDALh-109" value="&lt;span style=&quot;border-bottom: 1px dotted&quot;&gt;Gender_Pegawai&lt;/span&gt;" style="ellipse;whiteSpace=wrap;html=1;align=center;" vertex="1" parent="1">
          <mxGeometry x="500" y="710" width="100" height="40" as="geometry" />
        </mxCell>
        <mxCell id="yGLyyyXzOyP07_vXDALh-110" style="edgeStyle=orthogonalEdgeStyle;curved=1;rounded=0;orthogonalLoop=1;jettySize=auto;html=1;entryX=0.5;entryY=0;entryDx=0;entryDy=0;" edge="1" parent="1" source="yGLyyyXzOyP07_vXDALh-111" target="yGLyyyXzOyP07_vXDALh-92">
          <mxGeometry relative="1" as="geometry" />
        </mxCell>
        <mxCell id="yGLyyyXzOyP07_vXDALh-111" value="&lt;span style=&quot;border-bottom: 1px dotted&quot;&gt;Alamat&lt;/span&gt;" style="ellipse;whiteSpace=wrap;html=1;align=center;" vertex="1" parent="1">
          <mxGeometry x="555" y="760" width="100" height="40" as="geometry" />
        </mxCell>
        <mxCell id="yGLyyyXzOyP07_vXDALh-112" style="edgeStyle=orthogonalEdgeStyle;curved=1;rounded=0;orthogonalLoop=1;jettySize=auto;html=1;" edge="1" parent="1" source="yGLyyyXzOyP07_vXDALh-109">
          <mxGeometry relative="1" as="geometry">
            <mxPoint x="549.9999999999999" y="750" as="sourcePoint" />
            <mxPoint x="490" y="800" as="targetPoint" />
          </mxGeometry>
        </mxCell>
        <mxCell id="yGLyyyXzOyP07_vXDALh-113" style="edgeStyle=orthogonalEdgeStyle;curved=1;rounded=0;orthogonalLoop=1;jettySize=auto;html=1;entryX=1;entryY=0.5;entryDx=0;entryDy=0;" edge="1" parent="1" source="yGLyyyXzOyP07_vXDALh-114" target="yGLyyyXzOyP07_vXDALh-94">
          <mxGeometry relative="1" as="geometry" />
        </mxCell>
        <mxCell id="yGLyyyXzOyP07_vXDALh-114" value="&lt;span style=&quot;border-bottom: 1px dotted&quot;&gt;ID_Pinjam&lt;/span&gt;" style="ellipse;whiteSpace=wrap;html=1;align=center;" vertex="1" parent="1">
          <mxGeometry x="850" y="850" width="100" height="40" as="geometry" />
        </mxCell>
        <mxCell id="yGLyyyXzOyP07_vXDALh-115" style="edgeStyle=orthogonalEdgeStyle;curved=1;rounded=0;orthogonalLoop=1;jettySize=auto;html=1;" edge="1" parent="1" source="yGLyyyXzOyP07_vXDALh-116">
          <mxGeometry relative="1" as="geometry">
            <mxPoint x="810" y="950" as="targetPoint" />
            <Array as="points">
              <mxPoint x="970" y="950" />
            </Array>
          </mxGeometry>
        </mxCell>
        <mxCell id="yGLyyyXzOyP07_vXDALh-116" value="&lt;span style=&quot;border-bottom: 1px dotted&quot;&gt;ID_Buku&lt;/span&gt;" style="ellipse;whiteSpace=wrap;html=1;align=center;" vertex="1" parent="1">
          <mxGeometry x="920" y="900" width="100" height="40" as="geometry" />
        </mxCell>
        <mxCell id="yGLyyyXzOyP07_vXDALh-117" style="edgeStyle=orthogonalEdgeStyle;curved=1;rounded=0;orthogonalLoop=1;jettySize=auto;html=1;" edge="1" parent="1" source="yGLyyyXzOyP07_vXDALh-118">
          <mxGeometry relative="1" as="geometry">
            <mxPoint x="820" y="950" as="targetPoint" />
            <Array as="points">
              <mxPoint x="960" y="950" />
            </Array>
          </mxGeometry>
        </mxCell>
        <mxCell id="yGLyyyXzOyP07_vXDALh-118" value="&lt;span style=&quot;border-bottom: 1px dotted&quot;&gt;NPM&lt;/span&gt;" style="ellipse;whiteSpace=wrap;html=1;align=center;" vertex="1" parent="1">
          <mxGeometry x="880" y="1030" width="100" height="40" as="geometry" />
        </mxCell>
        <mxCell id="yGLyyyXzOyP07_vXDALh-119" style="edgeStyle=orthogonalEdgeStyle;curved=1;rounded=0;orthogonalLoop=1;jettySize=auto;html=1;" edge="1" parent="1" source="yGLyyyXzOyP07_vXDALh-120">
          <mxGeometry relative="1" as="geometry">
            <mxPoint x="810" y="950" as="targetPoint" />
            <Array as="points">
              <mxPoint x="860" y="950" />
            </Array>
          </mxGeometry>
        </mxCell>
        <mxCell id="yGLyyyXzOyP07_vXDALh-120" value="&lt;span style=&quot;border-bottom: 1px dotted&quot;&gt;ID_Pegawai&lt;/span&gt;" style="ellipse;whiteSpace=wrap;html=1;align=center;" vertex="1" parent="1">
          <mxGeometry x="810" y="990" width="100" height="40" as="geometry" />
        </mxCell>
        <mxCell id="yGLyyyXzOyP07_vXDALh-121" style="edgeStyle=orthogonalEdgeStyle;curved=1;rounded=0;orthogonalLoop=1;jettySize=auto;html=1;" edge="1" parent="1" source="yGLyyyXzOyP07_vXDALh-122">
          <mxGeometry relative="1" as="geometry">
            <mxPoint x="530" y="1140" as="targetPoint" />
          </mxGeometry>
        </mxCell>
        <mxCell id="yGLyyyXzOyP07_vXDALh-122" value="&lt;span style=&quot;border-bottom: 1px dotted&quot;&gt;Penerbit&lt;/span&gt;" style="ellipse;whiteSpace=wrap;html=1;align=center;" vertex="1" parent="1">
          <mxGeometry x="590" y="1150" width="100" height="40" as="geometry" />
        </mxCell>
        <mxCell id="yGLyyyXzOyP07_vXDALh-123" style="edgeStyle=orthogonalEdgeStyle;curved=1;rounded=0;orthogonalLoop=1;jettySize=auto;html=1;" edge="1" parent="1" source="yGLyyyXzOyP07_vXDALh-124">
          <mxGeometry relative="1" as="geometry">
            <mxPoint x="530" y="1140" as="targetPoint" />
          </mxGeometry>
        </mxCell>
        <mxCell id="yGLyyyXzOyP07_vXDALh-124" value="&lt;span style=&quot;border-bottom: 1px dotted&quot;&gt;Judul_Buku&lt;/span&gt;" style="ellipse;whiteSpace=wrap;html=1;align=center;" vertex="1" parent="1">
          <mxGeometry x="400" y="1210" width="100" height="40" as="geometry" />
        </mxCell>
        <mxCell id="yGLyyyXzOyP07_vXDALh-125" style="edgeStyle=orthogonalEdgeStyle;curved=1;rounded=0;orthogonalLoop=1;jettySize=auto;html=1;" edge="1" parent="1" source="yGLyyyXzOyP07_vXDALh-126">
          <mxGeometry relative="1" as="geometry">
            <mxPoint x="530" y="1140" as="targetPoint" />
          </mxGeometry>
        </mxCell>
        <mxCell id="yGLyyyXzOyP07_vXDALh-126" value="&lt;span style=&quot;border-bottom: 1px dotted&quot;&gt;Nama_Penulis&lt;/span&gt;" style="ellipse;whiteSpace=wrap;html=1;align=center;" vertex="1" parent="1">
          <mxGeometry x="535" y="1210" width="100" height="40" as="geometry" />
        </mxCell>
        <mxCell id="yGLyyyXzOyP07_vXDALh-127" style="edgeStyle=orthogonalEdgeStyle;curved=1;rounded=0;orthogonalLoop=1;jettySize=auto;html=1;entryX=0.5;entryY=1;entryDx=0;entryDy=0;" edge="1" parent="1" source="yGLyyyXzOyP07_vXDALh-128" target="yGLyyyXzOyP07_vXDALh-98">
          <mxGeometry relative="1" as="geometry" />
        </mxCell>
        <mxCell id="yGLyyyXzOyP07_vXDALh-128" value="&lt;span style=&quot;border-bottom: 1px dotted&quot;&gt;ID_Buku&lt;/span&gt;" style="ellipse;whiteSpace=wrap;html=1;align=center;" vertex="1" parent="1">
          <mxGeometry x="360" y="1150" width="100" height="40" as="geometry" />
        </mxCell>
        <mxCell id="yGLyyyXzOyP07_vXDALh-129" style="edgeStyle=orthogonalEdgeStyle;curved=1;rounded=0;orthogonalLoop=1;jettySize=auto;html=1;entryX=0.5;entryY=0;entryDx=0;entryDy=0;" edge="1" parent="1" source="yGLyyyXzOyP07_vXDALh-130" target="yGLyyyXzOyP07_vXDALh-103">
          <mxGeometry relative="1" as="geometry" />
        </mxCell>
        <mxCell id="yGLyyyXzOyP07_vXDALh-130" value="&lt;span style=&quot;border-bottom: 1px dotted&quot;&gt;ID_Pembeli&lt;/span&gt;" style="ellipse;whiteSpace=wrap;html=1;align=center;" vertex="1" parent="1">
          <mxGeometry x="200" y="850" width="100" height="40" as="geometry" />
        </mxCell>
        <mxCell id="yGLyyyXzOyP07_vXDALh-131" style="edgeStyle=orthogonalEdgeStyle;curved=1;rounded=0;orthogonalLoop=1;jettySize=auto;html=1;entryX=0.5;entryY=0;entryDx=0;entryDy=0;" edge="1" parent="1" source="yGLyyyXzOyP07_vXDALh-132" target="yGLyyyXzOyP07_vXDALh-103">
          <mxGeometry relative="1" as="geometry" />
        </mxCell>
        <mxCell id="yGLyyyXzOyP07_vXDALh-132" value="&lt;span style=&quot;border-bottom: 1px dotted&quot;&gt;KD_Barang&lt;/span&gt;" style="ellipse;whiteSpace=wrap;html=1;align=center;" vertex="1" parent="1">
          <mxGeometry x="90" y="860" width="100" height="40" as="geometry" />
        </mxCell>
        <mxCell id="yGLyyyXzOyP07_vXDALh-133" style="edgeStyle=orthogonalEdgeStyle;curved=1;rounded=0;orthogonalLoop=1;jettySize=auto;html=1;" edge="1" parent="1" source="yGLyyyXzOyP07_vXDALh-134">
          <mxGeometry relative="1" as="geometry">
            <mxPoint x="220" y="969.9999999999998" as="targetPoint" />
          </mxGeometry>
        </mxCell>
        <mxCell id="yGLyyyXzOyP07_vXDALh-134" value="&lt;span style=&quot;border-bottom: 1px dotted&quot;&gt;ID_Transaksi&lt;/span&gt;" style="ellipse;whiteSpace=wrap;html=1;align=center;" vertex="1" parent="1">
          <mxGeometry x="300" y="900" width="100" height="40" as="geometry" />
        </mxCell>
        <mxCell id="yGLyyyXzOyP07_vXDALh-135" style="edgeStyle=orthogonalEdgeStyle;curved=1;rounded=0;orthogonalLoop=1;jettySize=auto;html=1;entryX=0.5;entryY=0;entryDx=0;entryDy=0;" edge="1" parent="1" source="yGLyyyXzOyP07_vXDALh-136" target="yGLyyyXzOyP07_vXDALh-103">
          <mxGeometry relative="1" as="geometry" />
        </mxCell>
        <mxCell id="yGLyyyXzOyP07_vXDALh-136" value="&lt;span style=&quot;border-bottom: 1px dotted&quot;&gt;ID_Karyawan&lt;/span&gt;" style="ellipse;whiteSpace=wrap;html=1;align=center;" vertex="1" parent="1">
          <mxGeometry x="10" y="890" width="100" height="40" as="geometry" />
        </mxCell>
        <mxCell id="yGLyyyXzOyP07_vXDALh-137" style="edgeStyle=orthogonalEdgeStyle;curved=1;rounded=0;orthogonalLoop=1;jettySize=auto;html=1;" edge="1" parent="1" source="yGLyyyXzOyP07_vXDALh-138">
          <mxGeometry relative="1" as="geometry">
            <mxPoint x="220" y="959.9999999999998" as="targetPoint" />
          </mxGeometry>
        </mxCell>
        <mxCell id="yGLyyyXzOyP07_vXDALh-138" value="&lt;span style=&quot;border-bottom: 1px dotted&quot;&gt;Tanggal_Pembelian&lt;/span&gt;" style="ellipse;whiteSpace=wrap;html=1;align=center;" vertex="1" parent="1">
          <mxGeometry y="950" width="100" height="40" as="geometry" />
        </mxCell>
        <mxCell id="yGLyyyXzOyP07_vXDALh-139" style="edgeStyle=orthogonalEdgeStyle;curved=1;rounded=0;orthogonalLoop=1;jettySize=auto;html=1;exitX=1;exitY=0;exitDx=0;exitDy=0;" edge="1" parent="1" source="yGLyyyXzOyP07_vXDALh-140">
          <mxGeometry relative="1" as="geometry">
            <mxPoint x="220" y="959.9999999999998" as="targetPoint" />
            <Array as="points">
              <mxPoint x="120" y="1006" />
              <mxPoint x="120" y="950" />
              <mxPoint x="220" y="950" />
            </Array>
          </mxGeometry>
        </mxCell>
        <mxCell id="yGLyyyXzOyP07_vXDALh-140" value="&lt;span style=&quot;border-bottom: 1px dotted&quot;&gt;Total_Harga&lt;/span&gt;" style="ellipse;whiteSpace=wrap;html=1;align=center;" vertex="1" parent="1">
          <mxGeometry x="10" y="1000" width="100" height="40" as="geometry" />
        </mxCell>
        <mxCell id="yGLyyyXzOyP07_vXDALh-143" style="edgeStyle=orthogonalEdgeStyle;rounded=0;orthogonalLoop=1;jettySize=auto;html=1;entryX=1;entryY=0.5;entryDx=0;entryDy=0;curved=1;" edge="1" parent="1" source="yGLyyyXzOyP07_vXDALh-141" target="yGLyyyXzOyP07_vXDALh-94">
          <mxGeometry relative="1" as="geometry" />
        </mxCell>
        <mxCell id="yGLyyyXzOyP07_vXDALh-141" value="&lt;span style=&quot;border-bottom: 1px dotted&quot;&gt;Tanggal_Peminjaman&lt;/span&gt;" style="ellipse;whiteSpace=wrap;html=1;align=center;" vertex="1" parent="1">
          <mxGeometry x="950" y="940" width="120" height="50" as="geometry" />
        </mxCell>
        <mxCell id="yGLyyyXzOyP07_vXDALh-144" style="edgeStyle=orthogonalEdgeStyle;curved=1;rounded=0;orthogonalLoop=1;jettySize=auto;html=1;exitX=0.016;exitY=0.225;exitDx=0;exitDy=0;exitPerimeter=0;" edge="1" parent="1" source="yGLyyyXzOyP07_vXDALh-142">
          <mxGeometry relative="1" as="geometry">
            <mxPoint x="810" y="950" as="targetPoint" />
            <Array as="points">
              <mxPoint x="900" y="1006" />
              <mxPoint x="900" y="960" />
              <mxPoint x="810" y="960" />
            </Array>
          </mxGeometry>
        </mxCell>
        <mxCell id="yGLyyyXzOyP07_vXDALh-142" value="&lt;span style=&quot;border-bottom: 1px dotted&quot;&gt;Tanggal_Pengembalian&lt;/span&gt;" style="ellipse;whiteSpace=wrap;html=1;align=center;" vertex="1" parent="1">
          <mxGeometry x="960" y="995" width="120" height="50" as="geometry" />
        </mxCell>
      </root>
    </mxGraphModel>
  </diagram>
</mxfile>
